<svg xmlns="http://www.w3.org/2000/svg" width="1600" height="650" viewBox="0 0 1600 650">
  <style>text{font-family:"Segoe UI",Arial,sans-serif;fill:#12263a}.title{font-size:27px;font-weight:700;fill:#fff}.head{font-size:16px;font-weight:700;fill:#0d3555}.cell{font-size:15px}.small{font-size:14px}.grid{fill:none;stroke:#7890a8;stroke-width:1.2}</style>
  <rect width="1600" height="650" fill="#f5f6f7"/>
  <rect x="20" y="20" width="1560" height="70" fill="#255981"/><text x="800" y="64" text-anchor="middle" class="title">Device and Rack Plan (Excerpt)</text>
  <rect x="20" y="110" width="1560" height="55" fill="#8fd14a"/>
  <rect x="20" y="165" width="1560" height="450" fill="#fff3cf"/>
  <path class="grid" d="M20 110H1580V615H20ZM20 165H1580M20 210H1580M20 255H1580M20 300H1580M20 345H1580M20 390H1580M20 435H1580M20 480H1580M20 525H1580M20 570H1580M90 110V615M290 110V615M440 110V615M610 110V615M700 110V615M800 110V615M970 110V615M1280 110V615"/>
  <g text-anchor="middle" class="head"><text x="55" y="144">No.</text><text x="190" y="144">Device Role</text><text x="365" y="144">Zone</text><text x="525" y="144">Room</text><text x="655" y="144">Rack</text><text x="750" y="144">U Position</text><text x="885" y="144">Hostname</text><text x="1125" y="144">Model</text><text x="1430" y="144">Operating Role</text></g>
  <g text-anchor="middle" class="cell">
    <text x="55" y="193">1</text><text x="190" y="193">Egress switch</text><text x="365" y="193">Internet egress</text><text x="525" y="193">Core room</text><text x="655" y="193">A01</text><text x="750" y="193">U39</text><text x="885" y="193">INT-SW01</text><text x="1125" y="193">S5590-28T8XC-EI</text><text x="1430" y="193">IRF member 1</text>
    <text x="55" y="238">2</text><text x="190" y="238">Egress switch</text><text x="365" y="238">Internet egress</text><text x="525" y="238">Core room</text><text x="655" y="238">A02</text><text x="750" y="238">U39</text><text x="885" y="238">INT-SW02</text><text x="1125" y="238">S5590-28T8XC-EI</text><text x="1430" y="238">IRF member 2</text>
    <text x="55" y="283">3</text><text x="190" y="283">Internet firewall</text><text x="365" y="283">Internet egress</text><text x="525" y="283">Core room</text><text x="655" y="283">A01</text><text x="750" y="283">U37</text><text x="885" y="283">INT-FW01</text><text x="1125" y="283">SG-6000-A2700</text><text x="1430" y="283">HA active</text>
    <text x="55" y="328">4</text><text x="190" y="328">Internet firewall</text><text x="365" y="328">Internet egress</text><text x="525" y="328">Core room</text><text x="655" y="328">A02</text><text x="750" y="328">U37</text><text x="885" y="328">INT-FW02</text><text x="1125" y="328">SG-6000-A2700</text><text x="1430" y="328">HA standby</text>
    <text x="55" y="373">5</text><text x="190" y="373">Internet access control</text><text x="365" y="373">Internet egress</text><text x="525" y="373">Core room</text><text x="655" y="373">A01</text><text x="750" y="373">U35</text><text x="885" y="373">AC01</text><text x="1125" y="373">AC-1000-SK2100</text><text x="1430" y="373">HA active</text>
    <text x="55" y="418">6</text><text x="190" y="418">Internet access control</text><text x="365" y="418">Internet egress</text><text x="525" y="418">Core room</text><text x="655" y="418">A02</text><text x="750" y="418">U35</text><text x="885" y="418">AC02</text><text x="1125" y="418">AC-1000-SK2100</text><text x="1430" y="418">HA standby</text>
    <text x="55" y="463">7</text><text x="190" y="463">Campus core switch</text><text x="365" y="463">Core layer</text><text x="525" y="463">Core room</text><text x="655" y="463">A01</text><text x="750" y="463">U33</text><text x="885" y="463">CORE-SW01</text><text x="1125" y="463">S6550XE-56HF-HI</text><text x="1430" y="463">IRF member 1</text>
    <text x="55" y="508">8</text><text x="190" y="508">Campus core switch</text><text x="365" y="508">Core layer</text><text x="525" y="508">Core room</text><text x="655" y="508">A02</text><text x="750" y="508">U33</text><text x="885" y="508">CORE-SW02</text><text x="1125" y="508">S6550XE-56HF-HI</text><text x="1430" y="508">IRF member 2</text>
    <text x="55" y="553">9</text><text x="190" y="553">Campus aggregation switch</text><text x="365" y="553">Aggregation</text><text x="525" y="553">Office IDF</text><text x="655" y="553">B01</text><text x="750" y="553">U39</text><text x="885" y="553">AGG-SW01</text><text x="1125" y="553">S6520X-30QC-EI</text><text x="1430" y="553">IRF member 1</text>
    <text x="55" y="598">10</text><text x="190" y="598">Campus aggregation switch</text><text x="365" y="598">Aggregation</text><text x="525" y="598">Office IDF</text><text x="655" y="598">B01</text><text x="750" y="598">U15</text><text x="885" y="598">AGG-SW02</text><text x="1125" y="598">S6520X-30QC-EI</text><text x="1430" y="598">IRF member 2</text>
  </g>
</svg>
