<svg xmlns="http://www.w3.org/2000/svg" width="1800" height="720" viewBox="0 0 1800 720">
  <style>text{font-family:"Segoe UI",Arial,sans-serif;fill:#10283d}.title{font-size:27px;font-weight:700;fill:#fff}.head{font-size:16px;font-weight:700;fill:#0d3555}.cell{font-size:15px}.small{font-size:14px}.grid{fill:none;stroke:#7890a8;stroke-width:1.2}</style>
  <rect width="1800" height="720" fill="#f5f6f7"/><rect x="20" y="20" width="1760" height="70" fill="#255981"/><text x="900" y="64" text-anchor="middle" class="title">IP Address and VLAN Plan (Excerpt)</text>
  <rect x="20" y="110" width="1760" height="55" fill="#8fd14a"/><rect x="20" y="165" width="1760" height="495" fill="#d9f2f4"/>
  <path class="grid" d="M20 110H1780V660H20ZM20 165H1780M20 210H1780M20 255H1780M20 300H1780M20 345H1780M20 390H1780M20 435H1780M20 480H1780M20 525H1780M20 570H1780M20 615H1780M210 110V660M420 110V660M610 110V660M750 110V660M930 110V660M1090 110V660M1270 110V660M1450 110V660"/>
  <g text-anchor="middle" class="head"><text x="115" y="144">Address Pool</text><text x="315" y="144">Subnet</text><text x="515" y="144">Purpose</text><text x="680" y="144">VLAN</text><text x="840" y="144">Gateway</text><text x="1010" y="144">Subnet Mask</text><text x="1180" y="144">Start Address</text><text x="1360" y="144">End Address</text><text x="1615" y="144">Notes</text></g>
  <text x="115" y="420" text-anchor="middle" class="cell">10.60.0.0/20</text>
  <g text-anchor="middle" class="cell">
    <text x="315" y="193">10.60.0.0/24</text><text x="515" y="193">Out-of-band management</text><text x="680" y="193">VLAN 1000</text><text x="840" y="193">10.60.0.254</text><text x="1010" y="193">255.255.255.0</text><text x="1180" y="193">10.60.0.1</text><text x="1360" y="193">10.60.0.253</text><text x="1615" y="193">Management plane</text>
    <text x="315" y="238">10.60.1.0/24</text><text x="515" y="238">In-band management</text><text x="680" y="238">VLAN 2000</text><text x="840" y="238">10.60.1.254</text><text x="1010" y="238">255.255.255.0</text><text x="1180" y="238">10.60.1.1</text><text x="1360" y="238">10.60.1.253</text><text x="1615" y="238">Device management</text>
    <text x="315" y="283">10.60.2.0/24</text><text x="515" y="283">Layer 3 interconnect</text><text x="680" y="283">VLAN 3000</text><text x="840" y="283">Point-to-point allocation</text><text x="1010" y="283">255.255.255.252</text><text x="1180" y="283">10.60.2.1</text><text x="1360" y="283">10.60.2.253</text><text x="1615" y="283">Core-to-security interconnects</text>
    <text x="315" y="328">10.60.5.0/24</text><text x="515" y="328">Office endpoints</text><text x="680" y="328">VLAN 200</text><text x="840" y="328">10.60.5.254</text><text x="1010" y="328">255.255.255.0</text><text x="1180" y="328">10.60.5.1</text><text x="1360" y="328">10.60.5.253</text><text x="1615" y="328">Zone A; gateway at aggregation</text>
    <text x="315" y="373">10.60.6.0/24</text><text x="515" y="373">Office endpoints</text><text x="680" y="373">VLAN 200</text><text x="840" y="373">10.60.6.254</text><text x="1010" y="373">255.255.255.0</text><text x="1180" y="373">10.60.6.1</text><text x="1360" y="373">10.60.6.253</text><text x="1615" y="373">Zone A; gateway at aggregation</text>
    <text x="315" y="418">10.60.7.0/24</text><text x="515" y="418">Office endpoints</text><text x="680" y="418">VLAN 200</text><text x="840" y="418">10.60.7.254</text><text x="1010" y="418">255.255.255.0</text><text x="1180" y="418">10.60.7.1</text><text x="1360" y="418">10.60.7.253</text><text x="1615" y="418">Zone B; gateway at aggregation</text>
    <text x="315" y="463">10.60.8.0/24</text><text x="515" y="463">Office endpoints</text><text x="680" y="463">VLAN 200</text><text x="840" y="463">10.60.8.254</text><text x="1010" y="463">255.255.255.0</text><text x="1180" y="463">10.60.8.1</text><text x="1360" y="463">10.60.8.253</text><text x="1615" y="463">Zone B; gateway at aggregation</text>
    <text x="315" y="508">10.60.9.0/24</text><text x="515" y="508">Reserved</text><text x="1010" y="508">255.255.255.0</text><text x="1180" y="508">10.60.9.1</text><text x="1360" y="508">10.60.9.253</text><text x="1615" y="508">Future expansion</text>
    <text x="315" y="553">10.60.10.0/24</text><text x="515" y="553">Reserved</text><text x="1010" y="553">255.255.255.0</text><text x="1180" y="553">10.60.10.1</text><text x="1360" y="553">10.60.10.253</text><text x="1615" y="553">Future expansion</text>
    <text x="315" y="598">10.60.11.0/24</text><text x="515" y="598">Reserved</text><text x="1010" y="598">255.255.255.0</text><text x="1180" y="598">10.60.11.1</text><text x="1360" y="598">10.60.11.253</text><text x="1615" y="598">Future expansion</text>
    <text x="315" y="643">10.60.12.0/24</text><text x="515" y="643">Reserved</text><text x="1010" y="643">255.255.255.0</text><text x="1180" y="643">10.60.12.1</text><text x="1360" y="643">10.60.12.253</text><text x="1615" y="643">Future expansion</text>
  </g>
</svg>
