<svg xmlns="http://www.w3.org/2000/svg" width="1480" height="1120" viewBox="0 0 1480 1120">
  <defs>
    <filter id="shadow" x="-20%" y="-20%" width="140%" height="140%">
      <feDropShadow dx="0" dy="5" stdDeviation="7" flood-color="#16324f" flood-opacity="0.12"/>
    </filter>
    <marker id="arrow-blue" markerWidth="10" markerHeight="10" refX="8" refY="3" orient="auto" markerUnits="strokeWidth">
      <path d="M0,0 L0,6 L9,3 z" fill="#2878c8"/>
    </marker>
    <marker id="arrow-orange" markerWidth="10" markerHeight="10" refX="8" refY="3" orient="auto" markerUnits="strokeWidth">
      <path d="M0,0 L0,6 L9,3 z" fill="#e58b1c"/>
    </marker>
    <marker id="arrow-green" markerWidth="10" markerHeight="10" refX="8" refY="3" orient="auto" markerUnits="strokeWidth">
      <path d="M0,0 L0,6 L9,3 z" fill="#2e9a62"/>
    </marker>
    <marker id="arrow-gray" markerWidth="10" markerHeight="10" refX="8" refY="3" orient="auto" markerUnits="strokeWidth">
      <path d="M0,0 L0,6 L9,3 z" fill="#64778d"/>
    </marker>
    <style>
      .title { font: 700 34px "Microsoft YaHei", "Noto Sans SC", sans-serif; fill: #132b45; }
      .subtitle { font: 400 17px "Microsoft YaHei", "Noto Sans SC", sans-serif; fill: #60758c; }
      .section { font: 700 17px "Microsoft YaHei", "Noto Sans SC", sans-serif; fill: #496078; letter-spacing: 1px; }
      .label { font: 700 18px "Microsoft YaHei", "Noto Sans SC", sans-serif; fill: #17324e; }
      .small { font: 400 14px "Microsoft YaHei", "Noto Sans SC", sans-serif; fill: #5c7188; }
      .white { font: 700 18px "Microsoft YaHei", "Noto Sans SC", sans-serif; fill: white; }
      .white-small { font: 400 13px "Microsoft YaHei", "Noto Sans SC", sans-serif; fill: #eaf2fb; }
      .node { fill: #ffffff; stroke: #c4d2df; stroke-width: 1.5; filter: url(#shadow); }
      .pair { fill: #eaf2fb; stroke: #8eb1d4; stroke-width: 1.4; }
      .line-blue { fill: none; stroke: #2878c8; stroke-width: 4; marker-end: url(#arrow-blue); }
      .line-orange { fill: none; stroke: #e58b1c; stroke-width: 4; marker-end: url(#arrow-orange); }
      .line-green { fill: none; stroke: #2e9a62; stroke-width: 4; marker-end: url(#arrow-green); }
      .line-gray { fill: none; stroke: #64778d; stroke-width: 3.2; marker-end: url(#arrow-gray); }
      .manage { fill: none; stroke: #7a5cc7; stroke-width: 2.5; stroke-dasharray: 8 7; }
    </style>
  </defs>

  <rect width="1480" height="1120" fill="#f7fafc"/>
  <text x="52" y="54" class="title">园区办公网端到端逻辑拓扑</text>
  <text x="52" y="84" class="subtitle">三类业务出口、双机核心、汇聚接入与独立运维平面</text>

  <rect x="40" y="112" width="1400" height="146" rx="22" fill="#edf3f8" stroke="#d3dee8"/>
  <text x="64" y="142" class="section">外部网络</text>

  <rect x="94" y="166" width="150" height="58" rx="16" class="node"/>
  <text x="169" y="192" text-anchor="middle" class="label">运营商 A</text>
  <text x="169" y="213" text-anchor="middle" class="small">互联网线路</text>

  <rect x="268" y="166" width="150" height="58" rx="16" class="node"/>
  <text x="343" y="192" text-anchor="middle" class="label">运营商 B</text>
  <text x="343" y="213" text-anchor="middle" class="small">互联网线路</text>

  <rect x="574" y="166" width="150" height="58" rx="16" class="node"/>
  <text x="649" y="192" text-anchor="middle" class="label">业务中心 A</text>
  <text x="649" y="213" text-anchor="middle" class="small">专线接入</text>

  <rect x="748" y="166" width="150" height="58" rx="16" class="node"/>
  <text x="823" y="192" text-anchor="middle" class="label">业务中心 B</text>
  <text x="823" y="213" text-anchor="middle" class="small">专线接入</text>

  <rect x="1081" y="166" width="280" height="58" rx="16" class="node"/>
  <text x="1221" y="192" text-anchor="middle" class="label">集团内部网络</text>
  <text x="1221" y="213" text-anchor="middle" class="small">内部系统与数据中心通道</text>

  <text x="64" y="294" class="section">核心机房 · 出口与安全域</text>

  <rect x="54" y="310" width="414" height="248" rx="22" fill="#f1f7fd" stroke="#b8d2ec"/>
  <text x="78" y="342" class="label">互联网出口</text>

  <rect x="105" y="362" width="312" height="48" rx="12" class="node"/>
  <rect x="167" y="374" width="34" height="24" rx="5" class="pair"/>
  <rect x="208" y="374" width="34" height="24" rx="5" class="pair"/>
  <text x="320" y="392" text-anchor="middle" class="label">出口交换机堆叠</text>

  <rect x="105" y="429" width="312" height="48" rx="12" class="node"/>
  <rect x="167" y="441" width="34" height="24" rx="5" class="pair"/>
  <rect x="208" y="441" width="34" height="24" rx="5" class="pair"/>
  <text x="320" y="459" text-anchor="middle" class="label">防火墙 HA</text>

  <rect x="105" y="496" width="312" height="48" rx="12" class="node"/>
  <rect x="167" y="508" width="34" height="24" rx="5" class="pair"/>
  <rect x="208" y="508" width="34" height="24" rx="5" class="pair"/>
  <text x="320" y="526" text-anchor="middle" class="label">上网行为管理 HA</text>

  <rect x="533" y="310" width="414" height="181" rx="22" fill="#fff7ea" stroke="#eccb98"/>
  <text x="557" y="342" class="label">业务专线出口</text>

  <rect x="584" y="362" width="312" height="48" rx="12" class="node"/>
  <rect x="646" y="374" width="34" height="24" rx="5" class="pair"/>
  <rect x="687" y="374" width="34" height="24" rx="5" class="pair"/>
  <text x="799" y="392" text-anchor="middle" class="label">专线交换机堆叠</text>

  <rect x="584" y="429" width="312" height="48" rx="12" class="node"/>
  <rect x="646" y="441" width="34" height="24" rx="5" class="pair"/>
  <rect x="687" y="441" width="34" height="24" rx="5" class="pair"/>
  <text x="799" y="459" text-anchor="middle" class="label">专线防火墙 HA</text>

  <rect x="1012" y="310" width="414" height="181" rx="22" fill="#edf8f2" stroke="#abd7bf"/>
  <text x="1036" y="342" class="label">集团通道</text>

  <rect x="1062" y="383" width="318" height="60" rx="12" class="node"/>
  <rect x="1125" y="401" width="34" height="24" rx="5" class="pair"/>
  <rect x="1166" y="401" width="34" height="24" rx="5" class="pair"/>
  <text x="1285" y="419" text-anchor="middle" class="label">集团接入交换机</text>

  <path d="M169 224 L169 276 Q169 294 187 294 L224 294 Q261 294 261 362" class="line-blue"/>
  <path d="M343 224 L343 276 Q343 294 325 294 L298 294 Q261 294 261 362" class="line-blue"/>
  <path d="M261 410 L261 429" class="line-blue"/>
  <path d="M261 477 L261 496" class="line-blue"/>

  <path d="M649 224 L649 281 Q649 294 665 294 L703 294 Q740 294 740 362" class="line-orange"/>
  <path d="M823 224 L823 281 Q823 294 807 294 L777 294 Q740 294 740 362" class="line-orange"/>
  <path d="M740 410 L740 429" class="line-orange"/>

  <path d="M1221 224 L1221 383" class="line-green"/>

  <rect x="378" y="586" width="724" height="122" rx="24" fill="#163f66" filter="url(#shadow)"/>
  <text x="740" y="625" text-anchor="middle" class="white">办公网核心交换机堆叠</text>
  <rect x="578" y="647" width="132" height="38" rx="10" fill="#2e6799" stroke="#75a3c9"/>
  <rect x="770" y="647" width="132" height="38" rx="10" fill="#2e6799" stroke="#75a3c9"/>
  <text x="644" y="672" text-anchor="middle" class="white-small">核心成员 1</text>
  <text x="836" y="672" text-anchor="middle" class="white-small">核心成员 2</text>
  <line x1="710" y1="666" x2="770" y2="666" stroke="#a9c7df" stroke-width="3" stroke-dasharray="7 5"/>

  <path d="M261 544 L261 564 Q261 602 378 618" class="line-blue"/>
  <path d="M740 477 L740 586" class="line-orange"/>
  <path d="M1219 443 L1219 558 Q1219 602 1102 618" class="line-green"/>

  <text x="376" y="746" class="section">办公区域弱电间 · 汇聚与接入</text>
  <rect x="378" y="765" width="724" height="105" rx="22" fill="#245d8f" filter="url(#shadow)"/>
  <text x="740" y="801" text-anchor="middle" class="white">办公网汇聚交换机堆叠</text>
  <text x="740" y="830" text-anchor="middle" class="white-small">终端网关、VLAN 汇聚、双上联</text>
  <rect x="603" y="840" width="105" height="20" rx="7" fill="#4d83ae"/>
  <rect x="772" y="840" width="105" height="20" rx="7" fill="#4d83ae"/>
  <path d="M740 708 L740 765" class="line-gray"/>

  <rect x="351" y="922" width="190" height="56" rx="14" class="node"/>
  <text x="446" y="956" text-anchor="middle" class="label">接入交换机组 A</text>
  <rect x="645" y="922" width="190" height="56" rx="14" class="node"/>
  <text x="740" y="956" text-anchor="middle" class="label">接入交换机组 B</text>
  <rect x="939" y="922" width="190" height="56" rx="14" class="node"/>
  <text x="1034" y="956" text-anchor="middle" class="label">接入交换机组 C</text>

  <path d="M610 870 L446 922" class="line-gray"/>
  <path d="M740 870 L740 922" class="line-gray"/>
  <path d="M870 870 L1034 922" class="line-gray"/>

  <rect x="351" y="1013" width="778" height="62" rx="17" fill="#ffffff" stroke="#c4d2df" filter="url(#shadow)"/>
  <text x="740" y="1040" text-anchor="middle" class="label">办公终端</text>
  <text x="740" y="1063" text-anchor="middle" class="small">有线接入 · 802.1X / MAC 认证 · 业务访问</text>
  <path d="M446 978 L446 997 Q446 1013 462 1013" class="line-gray"/>
  <path d="M740 978 L740 1013" class="line-gray"/>
  <path d="M1034 978 L1034 997 Q1034 1013 1018 1013" class="line-gray"/>

  <rect x="54" y="638" width="264" height="300" rx="22" fill="#f3effb" stroke="#c7b8e8"/>
  <text x="78" y="674" class="label">运维与安全平面</text>
  <rect x="87" y="704" width="198" height="54" rx="12" class="node"/>
  <text x="186" y="728" text-anchor="middle" class="label">带外管理 VRF</text>
  <text x="186" y="748" text-anchor="middle" class="small">独立管理路径</text>
  <rect x="87" y="780" width="198" height="54" rx="12" class="node"/>
  <text x="186" y="804" text-anchor="middle" class="label">统一监控</text>
  <text x="186" y="824" text-anchor="middle" class="small">设备、链路与阈值告警</text>
  <rect x="87" y="856" width="198" height="54" rx="12" class="node"/>
  <text x="186" y="880" text-anchor="middle" class="label">准入认证</text>
  <text x="186" y="900" text-anchor="middle" class="small">802.1X 与 MAC 认证</text>
  <path d="M318 732 L378 650" class="manage"/>
  <path d="M318 807 L378 807" class="manage"/>
  <path d="M318 883 L351 949" class="manage"/>

  <line x1="1162" y1="1027" x2="1218" y2="1027" stroke="#2878c8" stroke-width="4"/>
  <text x="1230" y="1033" class="small">互联网流量</text>
  <line x1="1162" y1="1055" x2="1218" y2="1055" stroke="#e58b1c" stroke-width="4"/>
  <text x="1230" y="1061" class="small">专线流量</text>
  <line x1="1162" y1="1083" x2="1218" y2="1083" stroke="#2e9a62" stroke-width="4"/>
  <text x="1230" y="1089" class="small">集团流量</text>
</svg>
